<?xml version="1.0" encoding="UTF-8" standalone="no"?>
<svg
   xmlns:dc="http://purl.org/dc/elements/1.1/"
   xmlns:cc="http://creativecommons.org/ns#"
   xmlns:rdf="http://www.w3.org/1999/02/22-rdf-syntax-ns#"
   xmlns:svg="http://www.w3.org/2000/svg"
   xmlns="http://www.w3.org/2000/svg"
   xmlns:sodipodi="http://sodipodi.sourceforge.net/DTD/sodipodi-0.dtd"
   xmlns:inkscape="http://www.inkscape.org/namespaces/inkscape"
   id="Layer_1"
   enable-background="new 0 0 511.334 511.334"
   height="512"
   viewBox="0 0 511.334 511.334"
   width="512"
   version="1.1"
   sodipodi:docname="shopping_cart_white.svg"
   inkscape:version="0.92.4 (5da689c313, 2019-01-14)">
  <metadata
     id="metadata9">
    <rdf:RDF>
      <cc:Work
         rdf:about="">
        <dc:format>image/svg+xml</dc:format>
        <dc:type
           rdf:resource="http://purl.org/dc/dcmitype/StillImage" />
        <dc:title></dc:title>
      </cc:Work>
    </rdf:RDF>
  </metadata>
  <defs
     id="defs7" />
  <sodipodi:namedview
     pagecolor="#ffffff"
     bordercolor="#666666"
     borderopacity="1"
     objecttolerance="10"
     gridtolerance="10"
     guidetolerance="10"
     inkscape:pageopacity="0"
     inkscape:pageshadow="2"
     inkscape:window-width="2100"
     inkscape:window-height="1234"
     id="namedview5"
     showgrid="false"
     inkscape:zoom="0.4609375"
     inkscape:cx="256"
     inkscape:cy="256"
     inkscape:window-x="-9"
     inkscape:window-y="-9"
     inkscape:window-maximized="1"
     inkscape:current-layer="Layer_1" />
  <path
     d="m506.887 114.74c-3.979-5.097-10.086-8.076-16.553-8.076h-399.808l-5.943-66.207c-.972-10.827-10.046-19.123-20.916-19.123h-42.667c-11.598 0-21 9.402-21 21s9.402 21 21 21h23.468l23.018 256.439c.005.302-.01.599.007.903.047.806.152 1.594.286 2.37l.842 9.376c.016.177.034.354.055.529 2.552 22.11 13.851 41.267 30.19 54.21-8.466 10.812-13.532 24.407-13.532 39.172 0 35.106 28.561 63.667 63.666 63.667 35.106 0 63.667-28.561 63.667-63.667 0-7.605-1.345-14.9-3.801-21.667h114.936c-2.457 6.767-3.801 14.062-3.801 21.667 0 35.106 28.561 63.667 63.667 63.667s63.667-28.561 63.667-63.667-28.561-63.667-63.667-63.667h-234.526c-15.952 0-29.853-9.624-35.853-23.646l335.608-19.724c9.162-.538 16.914-6.966 19.141-15.87l42.67-170.67c1.567-6.272.158-12.918-3.821-18.016z"
     id="path2"
     style="fill:#ffffff;fill-opacity:1" />
</svg>
